{"title":"ParaNorman 2012 DVDrip English Dutch Klam","uid":8252509,"size":1396949749,"categoryP":"video","categoryS":"movies","magnet":"?xt=urn:btih:c989dcd35bc622709b8d2355d28edcc6ca3cf43a&amp;dn=ParaNorman+2012+DVDrip+English+Dutch+Klam&amp;tr=udp%3A%2F%2Ftracker.openbittorrent.com%3A80&amp;tr=udp%3A%2F%2Fopen.demonii.com%3A1337&amp;tr=udp%3A%2F%2Ftracker.coppersurfer.tk%3A6969&amp;tr=udp%3A%2F%2Fexodus.desync.com%3A6969","seeders":1,"leechers":0,"uploader":"Klambake","files":-1,"time":1363190234,"description":"With the English voices of Kodi Smit-McPhee, Tucker Albrizzi and Anna Kendrick\n\nEnglish of Nederlands gesproken,\nEen klein stadje wordt belegerd door zombies. Alleen de verkeerd begrepen lokale jongen Norman, die in staat is om met de doden te spreken, kan het stadje redden. Naast de zombies zal hij het op moeten nemen tegen spoken, heksen en, het ergste van alles: achterlijke volwassenen, om zo zijn stad te kunnen redden van een eeuwenoude vloek. De grenzen van zijn paranormale activiteiten zullen echter tot buitenaardse grenzen worden opgerekt...\n\nEnglish or Dutch spoken,\nA misunderstood boy takes on ghosts, zombies and grown-ups to save his town from a centuries-old curse. \n &lt;a href=&quot;\nhttp://www.imdb.com/title/tt1623288&quot; rel=&quot;nofollow&quot; target=&quot;_NEW&quot;&gt;\nhttp://www.imdb.com/title/tt1623288&lt;/a&gt;\t\n\n------------------------ Dutch Friends ------------------------\n---------------------------------------------------------------\n- Bezoek ook eens mijn vrienden op: &lt;a href=&quot; http://www.Film-Test.nl&quot; rel=&quot;nofollow&quot; target=&quot;_NEW&quot;&gt; http://www.Film-Test.nl&lt;/a&gt; --\n----- voor mijn Nederlandse Sync. ondertitels ---- en meer ----\n------- http://www.Film-Test.nl ---- Over Films en meer -------\n---------------------------------------------------------------\n\nGeneral:\n\nComplete name                    : ParaNormanParaNorman.avi\nFormat                           : AVI\nFormat/Info                      : Audio Video Interleave\nFile size                        : 1.30 GiB\nDuration                         : 1h 28mn\nOverall bit rate                 : 2 107 Kbps\n\nVideo:\n\nFormat                           : MPEG-4 Visual\nFormat profile                   : Simple@L3\nFormat settings, BVOP            : No\nFormat settings, QPel            : No\nFormat settings, GMC             : No warppoints\nFormat settings, Matrix          : Default (H.263)\nCodec ID                         : XVID\nCodec ID/Hint                    : XviD\nDuration                         : 1h 28mn\nBit rate                         : 1 322 Kbps\nWidth                            : 720 pixels\nHeight                           : 304 pixels\nDisplay aspect ratio             : 2.35:1\nFrame rate                       : 25.000 fps\nColor space                      : YUV\nChroma subsampling               : 4:2:0\nBit depth                        : 8 bits\nScan type                        : Progressive\nCompression mode                 : Lossy\nBits/(Pixel*Frame)               : 0.242\nStream size                      : 836 MiB (63%)\nWriting library                  : XviD 1.1.2 (UTC 2006-11-01)\n\nAudio's:\n\nFormat                           : AC-3\nFormat/Info                      : Audio Coding 3\nMode extension                   : CM (complete main)\nCodec ID                         : 2000\nDuration                         : 1h 28mn\nBit rate mode                    : Constant\nBit rate                         : 384 Kbps\nChannel(s)                       : 6 channels\nChannel positions                : Front: L C R, Side: L R, LFE\nSampling rate                    : 48.0 KHz\nBit depth                        : 16 bits\nCompression mode                 : Lossy\nStream size                      : 243 MiB (18%)\nAlignment                        : Aligned on interleaves\nInterleave, duration             : 32 ms (0.80 video frame)\nInterleave, preload duration     : 288 ms","torrent":{"xt":"urn:btih:c989dcd35bc622709b8d2355d28edcc6ca3cf43a","amp;dn":"ParaNorman+2012+DVDrip+English+Dutch+Klam","amp;tr":["udp%3A%2F%2Ftracker.openbittorrent.com%3A80","udp%3A%2F%2Fopen.demonii.com%3A1337","udp%3A%2F%2Ftracker.coppersurfer.tk%3A6969","udp%3A%2F%2Fexodus.desync.com%3A6969"],"infoHash":"c989dcd35bc622709b8d2355d28edcc6ca3cf43a","infoHashBuffer":{"type":"Buffer","data":[201,137,220,211,91,198,34,112,155,141,35,85,210,142,220,198,202,60,244,58]},"announce":[],"urlList":[]}}